<?xml version="1.0" encoding="UTF-8" standalone="no"?>
<!DOCTYPE svg PUBLIC "-//W3C//DTD SVG 20010904//EN"
"http://www.w3.org/TR/2001/REC-SVG-20010904/DTD/svg10.dtd">
<svg xmlns="http://www.w3.org/2000/svg" xmlns:xlink="http://www.w3.org/1999/xlink" xmlns:xml="http://www.w3.org/XML/1998/namespace" xml:space="preserve" width="64" height="64" overflow="visible" viewBox="0 0 48 48">
  <defs>
    <path id="m" fill="#fff" d="M-33.007305 23.18509c.2165.2215.74925.097 1.330375-.27425.192625-.12275.3915-.274125.584625-.44825.1845-.165625.344875-.337625.484-.507875.44725-.5485.636375-1.08025.434625-1.323l.002875-.003 9.477125 10.514875c.079375.28275-.0735.81225-.46925 1.294625-.13525.16475-.2925.332-.47125.49175-.1985.17925-.402375.3345-.600875.4595-.5925.37575-1.162875.524875-1.377.287625-.049125-.054875-.26225-.292-.268125-.30075l-9.156875-10.16425.02975-.027z"/>
  </defs>
  <defs>
    <linearGradient id="j" x1="-481.7007" x2="-360.2456" y1="-94.4194" y2="-164.2214" gradientTransform="rotate(78.516 -305.05899587 342.87362224)" gradientUnits="userSpaceOnUse">
      <stop offset="0" stop-color="#900"/>
      <stop offset="1" stop-color="#7c0000"/>
    </linearGradient>
    <linearGradient id="k" x1="-1375.9844" x2="-1355.0455" y1="685.3809" y2="706.3217" gradientTransform="matrix(-.999 .0435 .0435 .999 -1277.0056 -496.5172)" gradientUnits="userSpaceOnUse">
      <stop offset="0" stop-color="#f8f1dc"/>
      <stop offset="1" stop-color="#d6a84a"/>
    </linearGradient>
    <linearGradient id="l" x1="65.0947" x2="137.6021" y1="-.7954" y2="160.1823" gradientUnits="userSpaceOnUse">
      <stop offset="0" stop-color="#ffa700"/>
      <stop offset=".7753" stop-color="gold"/>
      <stop offset="1" stop-color="#ff794b"/>
    </linearGradient>
    <linearGradient id="n" x1="-1336.4497" x2="-1325.3219" y1="635.7949" y2="622.5333" gradientTransform="matrix(-.999 .0435 .0435 .999 -1277.0056 -496.5172)" gradientUnits="userSpaceOnUse">
      <stop offset="0" stop-color="#ffc957"/>
      <stop offset="1" stop-color="#ff6d00"/>
    </linearGradient>
    <linearGradient id="o" x1="-1401.459" x2="-1354.6851" y1="595.6309" y2="699.4763" gradientTransform="matrix(-.999 .0435 .0435 .999 -1277.0056 -496.5172)" gradientUnits="userSpaceOnUse">
      <stop offset="0" stop-color="#ffa700"/>
      <stop offset=".7753" stop-color="gold"/>
      <stop offset="1" stop-color="#ff9200"/>
    </linearGradient>
    <linearGradient id="p" x1="67.8452" x2="144.5898" y1="115.5361" y2="115.5361" gradientUnits="userSpaceOnUse">
      <stop offset="0" stop-color="#7d7d99"/>
      <stop offset=".1798" stop-color="#b1b1c5"/>
      <stop offset=".3727" stop-color="#bcbcc8"/>
      <stop offset=".6825" stop-color="#c8c8cb"/>
      <stop offset="1" stop-color="#ccc"/>
    </linearGradient>
  </defs>
  <path d="M9.416 5.208c-2.047 0-3.712 1.693-3.712 3.775V39.15c0 2.082 1.666 3.775 3.712 3.775h29.401c2.047 0 3.712-1.693 3.712-3.775V8.983c0-2.082-1.665-3.775-3.712-3.775H9.416z" opacity=".2"/>
  <path d="M9.041 4.833c-2.047 0-3.712 1.693-3.712 3.775v30.167c0 2.082 1.666 3.775 3.712 3.775h29.401c2.047 0 3.712-1.693 3.712-3.775V8.608c0-2.082-1.665-3.775-3.712-3.775H9.041z" opacity=".2"/>
  <path fill="#00008d" d="M8.854 4.646c-2.047 0-3.712 1.693-3.712 3.775v30.167c0 2.082 1.666 3.775 3.712 3.775h29.401c2.047 0 3.712-1.693 3.712-3.775V8.42c0-2.082-1.665-3.775-3.712-3.775H8.854z"/>
  <path fill="#00008d" d="M8.854 5.021c-1.84 0-3.337 1.525-3.337 3.4v30.167c0 1.875 1.497 3.4 3.337 3.4h29.401c1.84 0 3.337-1.525 3.337-3.4V8.42c0-1.875-1.497-3.4-3.337-3.4H8.854z"/>
  <path fill="#fff" d="M40.654 38.588c0 1.36-1.074 2.463-2.399 2.463H8.854c-1.326 0-2.4-1.103-2.4-2.463V8.42c0-1.36 1.074-2.462 2.4-2.462h29.401c1.325 0 2.399 1.103 2.399 2.462v30.168z"/>
  <linearGradient id="a" x1="-149.0464" x2="-149.0464" y1="251.1436" y2="436.303" gradientTransform="matrix(.1875 0 0 -.1875 51.5 83.75)" gradientUnits="userSpaceOnUse">
    <stop offset="0" stop-color="#b4e2ff"/>
    <stop offset="1" stop-color="#006dff"/>
  </linearGradient>
  <path fill="url(#a)" d="M40.654 38.588c0 1.36-1.074 2.463-2.399 2.463H8.854c-1.326 0-2.4-1.103-2.4-2.463V8.42c0-1.36 1.074-2.462 2.4-2.462h29.401c1.325 0 2.399 1.103 2.399 2.462v30.168z"/>
  <path fill="#fff" d="M8.854 6.521c-1.013 0-1.837.852-1.837 1.9v30.167c0 1.048.824 1.9 1.837 1.9h29.401c1.013 0 1.837-.853 1.837-1.9V8.42c0-1.048-.824-1.9-1.837-1.9H8.854z"/>
  <linearGradient id="b" x1="7.3057" x2="50.7728" y1="7.2559" y2="50.7231" gradientUnits="userSpaceOnUse">
    <stop offset="0" stop-color="#94caff"/>
    <stop offset="1" stop-color="#006dff"/>
  </linearGradient>
  <path fill="url(#b)" d="M8.854 6.521c-1.013 0-1.837.852-1.837 1.9v30.167c0 1.048.824 1.9 1.837 1.9h29.401c1.013 0 1.837-.853 1.837-1.9V8.42c0-1.048-.824-1.9-1.837-1.9H8.854z"/>
  <linearGradient id="c" x1="23.5039" x2="23.5039" y1="2.187" y2="34.4368" gradientUnits="userSpaceOnUse">
    <stop offset="0" stop-color="#428aff"/>
    <stop offset="1" stop-color="#c9e6ff"/>
  </linearGradient>
  <path fill="url(#c)" d="M36.626 6.861H9.712v17.294h27.583V6.861h-.669z"/>
  <path fill="#fff" d="M35.809 6.486H10.221v16.919h26.567V6.486z"/>
  <linearGradient id="d" x1="-104.5933" x2="-206.815" y1="411.6699" y2="309.4482" gradientTransform="matrix(.1875 0 0 -.1875 51.5 83.75)" gradientUnits="userSpaceOnUse">
    <stop offset="0" stop-color="#ccc"/>
    <stop offset="1" stop-color="#f0f0f0"/>
  </linearGradient>
  <path fill="url(#d)" d="M35.809 6.486H10.221v16.919h26.567V6.486z"/>
  <path fill="#fff" stroke="#fff" stroke-width=".1875" d="M11.488 7.019v15.239h24.133V7.019H11.488z"/>
  <linearGradient id="e" x1="34.5967" x2="18.4087" y1="3.5967" y2="19.7847" gradientUnits="userSpaceOnUse">
    <stop offset="0" stop-color="#fff"/>
    <stop offset=".5506" stop-color="#e6edff"/>
    <stop offset="1" stop-color="#fff"/>
  </linearGradient>
  <path fill="url(#e)" stroke="#fff" stroke-width=".1875" d="M11.488 7.019v15.239h24.133V7.019H11.488z"/>
  <linearGradient id="f" x1="-174.4409" x2="-108.8787" y1="300.0908" y2="210.2074" gradientTransform="matrix(.1875 0 0 -.1875 51.5 83.75)" gradientUnits="userSpaceOnUse">
    <stop offset="0" stop-color="#039"/>
    <stop offset=".2697" stop-color="#0035ed"/>
    <stop offset="1" stop-color="#57adff"/>
  </linearGradient>
  <path fill="url(#f)" d="M12.154 26.479h22.007v13.978H12.154z"/>
  <linearGradient id="g" x1="21.8687" x2="21.8687" y1="25.1875" y2="44.6251" gradientUnits="userSpaceOnUse">
    <stop offset="0" stop-color="#dfdfdf"/>
    <stop offset="1" stop-color="#7d7d99"/>
  </linearGradient>
  <path fill="url(#g)" d="M13.244 27.021c-.311 0-.563.252-.563.563v13.104c0 .312.252.563.563.563h17.249c.311 0 .563-.251.563-.563V27.583c0-.311-.252-.563-.563-.563H13.244zm5.606 3.676v5.949h-2.759v-5.949h2.759z"/>
  <linearGradient id="h" x1="-158.0337" x2="-158.0337" y1="288.0684" y2="231.3219" gradientTransform="matrix(.1875 0 0 -.1875 51.5 83.75)" gradientUnits="userSpaceOnUse">
    <stop offset="0" stop-color="#f0f0f0"/>
    <stop offset=".6348" stop-color="#cecedb"/>
    <stop offset=".8595" stop-color="#b1b1c5"/>
    <stop offset="1" stop-color="#fff"/>
  </linearGradient>
  <path fill="url(#h)" d="M13.244 27.583v13.104h17.249V27.583H13.244zm6.169 9.626h-3.884v-7.074h3.884v7.074z"/>
  <linearGradient id="i" x1="-68.1494" x2="-68.1494" y1="388.4561" y2="404.6693" gradientTransform="matrix(.1875 0 0 -.1875 51.5 83.75)" gradientUnits="userSpaceOnUse">
    <stop offset="0" stop-color="#39f"/>
    <stop offset="1"/>
  </linearGradient>
  <path fill="url(#i)" d="M37.83 9.031h1.784v1.785H37.83z"/>
  <path fill="none" d="M0 48V0h48v48"/>
  <path fill="none" d="M-41.51768 12.75884h32v32h-32z" font-size="12"/>
  <g font-size="12" transform="matrix(.2072 1.69127 -1.69127 .2072 86.28419 53.75496)">
    <path d="M-17.52718 37.25684c-1.451625-4.515875-1.714625-5.33375-1.857375-5.508.014875.0095.036125.02225.036125.02225l-9.81875-10.931875c-.524375-.58125-1.750625.0445-2.669375.872-.910375.81775-1.665 1.971625-1.17125 2.5705l9.868 10.942875.066625.01175 4.721 2.20025.961.295625-.136-.475375z" opacity=".2"/>
    <path d="M-17.323055 36.94834c-1.451375-4.515625-1.714125-5.33375-1.856875-5.508.014625.009.035875.02225.035875.02225l-9.818125-10.931875c-.524875-.581375-1.751875.044375-2.670125.871875-.910125.818125-1.665 1.971625-1.171 2.57075l9.868125 10.942375.066625.0125 4.72125 2.19975.96025.295875-.136-.4755z" opacity=".2"/>
    <path d="M-18.171055 36.639965c-1.451625-4.515875-1.714125-5.334-1.857875-5.5085.015125.00925.036875.0225.036875.0225l-9.819-10.932125c-.524-.58125-1.751125.044875-2.66925.87225-.910375.81775-1.665125 1.971375-1.171125 2.570625l9.86775 10.942625.066875.012 4.721 2.19975.96075.295875-.136-.475z" opacity=".2"/>
    <path fill="#fff" d="M-18.21393 36.428215c-1.451625-4.515625-1.714125-5.33325-1.857875-5.507625.015375.009.036625.0225.036625.0225l-9.81825-10.93225c-.524875-.581375-1.751875.044625-2.669875.872125-.910375.817875-1.66525 1.97175-1.17125 2.57075l9.867625 10.942625.066875.01225 4.721375 2.19975.96075.295375-.136-.4755z"/>
    <path fill="url(#j)" d="M186.43 189.355c-11.613-36.125-13.713-42.666-14.863-44.061.123.072.293.18.293.18L93.314 58.016c-4.199-4.651-14.015.357-21.359 6.977-7.283 6.543-13.322 15.774-9.37 20.566l78.941 87.541.535.098 37.771 17.598 7.686 2.363-1.088-3.804z" transform="matrix(.125 0 0 .125 -41.51768 12.75884)"/>
    <path fill="url(#k)" d="m166.969 147.762 13.723 38.129-36.371-17.902.168-.152c-.25-.08-.496-.178-.701-.316l-.125.121-75.303-83.57.123-.104c-2.246-2.49 1.032-9.094 7.308-14.752 6.28-5.652 13.18-8.219 15.425-5.733l75.292 83.565.461.714z" transform="matrix(.125 0 0 .125 -41.51768 12.75884)"/>
    <path fill="url(#l)" d="M148.652 170.121c2.076-.369 4.635-1.479 7.252-3.139 1.617-1.018 3.279-2.283 4.898-3.744 1.455-1.303 2.736-2.666 3.84-4.01 2.076-2.531 3.322-5.213 3.781-7.424l-1.455-4.043-.463-.715-74.798-83.018c.608 2.24-.962 5.938-4.063 9.74-1.134 1.389-2.441 2.789-3.945 4.141-1.574 1.419-3.195 2.652-4.767 3.654-4.493 2.871-8.628 3.928-10.548 2.486l-.025.021 75.303 83.57.125-.121c.205.139.451.236.701.316l-.168.152 4.332 2.134z" transform="matrix(.125 0 0 .125 -41.51768 12.75884)"/>
    <use xlink:href="#m"/>
    <path fill="#fff" d="M-32.04393 21.410715c.785-.7065 1.6475-1.027375 1.928125-.716625l2.120125 2.3535.144 3.31125-2.246625.098-2.8745-3.189125.015375-.013c-.28075-.31125.129-1.136625.9135-1.844z"/>
    <use xlink:href="#m"/>
    <path fill="url(#n)" d="M75.79 69.215c6.28-5.652 13.18-8.219 15.425-5.733l16.961 18.828 1.152 26.49-17.973.784-22.996-25.513.123-.104c-2.246-2.49 1.032-9.093 7.308-14.752z" transform="matrix(.125 0 0 .125 -41.51768 12.75884)"/>
    <path fill="url(#o)" d="M68.083 83.41c1.732 1.772 5.994.776 10.643-2.194 1.541-.982 3.132-2.193 4.677-3.586 1.476-1.325 2.759-2.701 3.872-4.063 3.578-4.388 5.091-8.642 3.477-10.584l.023-.024 75.817 84.119c.635 2.262-.588 6.498-3.754 10.357-1.082 1.318-2.34 2.656-3.77 3.934-1.588 1.434-3.219 2.676-4.807 3.676-4.74 3.006-9.303 4.199-11.016 2.301-.393-.439-2.098-2.336-2.145-2.406L67.845 83.626l.238-.216z" transform="matrix(.125 0 0 .125 -41.51768 12.75884)"/>
    <path fill="url(#p)" d="M74.357 90.713s6.036-.212 10.685-3.182c1.542-.983 3.132-2.193 4.677-3.586 1.477-1.326 2.76-2.701 3.873-4.064 2.928-3.589 4.469-7.088 4.049-9.307l-6.865-7.617-.023.024c1.614 1.942.102 6.196-3.477 10.584-1.113 1.362-2.396 2.738-3.872 4.063-1.545 1.393-3.136 2.604-4.677 3.586-4.648 2.971-8.91 3.967-10.643 2.194l-.238.217 73.256 81.311c.047.07 1.752 1.967 2.145 2.406.342.377.799.627 1.344.771l-70.234-77.4z" transform="matrix(.125 0 0 .125 -41.51768 12.75884)"/>
    <path fill="#033" d="M-20.013305 34.67809c-.204375.184625-.413375.3455-.618625.48l1.700625.837125-.637-1.7695c-.13225.15225-.280375.305125-.445.452375z"/>
    <path fill="#fff" d="M-21.127555 32.390465-30.64668 22.00009c.0125-.015.026625-.03025.038375-.0455.1785-.219.315-.43625.403125-.63225l9.471 10.338375c-.069125.228-.2.483375-.393375.72975z" opacity=".5"/>
    <path fill="#fff" d="M-30.608305 21.95459c.07925-.09675.148625-.1935.21175-.2875l9.501875 10.37175c-.07225.132875-.160375.26825-.26825.399125-.093.112-.19575.225625-.308125.337125l-9.527625-10.39975c.1455-.1385.276125-.28.390375-.42075z" opacity=".5"/>
  </g>
</svg>